<svg xmlns="http://www.w3.org/2000/svg" viewBox="0 0 32.87 30.18"><defs><style>.cls-1{fill:#fff;}</style></defs><g id="Calque_2" data-name="Calque 2"><g id="Calque_1-2" data-name="Calque 1"><path class="cls-1" d="M31.68,5.45a1.74,1.74,0,0,0-.39,0H6.21l-.36-4A1.57,1.57,0,0,0,4.28,0H1.58a1.58,1.58,0,0,0,0,3.16H2.83l.07.72c0,.16,0,.3,0,.42C3,4.76,3,5,3,5.12c0,.33.06.7.1,1.13L4.34,20a5.47,5.47,0,0,0,1.83,3.49,4.28,4.28,0,0,0,3.5,6.72,4.55,4.55,0,0,0,.53,0,4.28,4.28,0,0,0,3.61-5.37h6.6a4.27,4.27,0,1,0,4.13-3.16H9.69a2.21,2.21,0,0,1-1.87-1l20.86-1.23a1.57,1.57,0,0,0,1.44-1.19l2.7-10.79A1.58,1.58,0,0,0,31.68,5.45ZM29.27,8.56l-1.93,7.72-20,1.17-.8-8.89ZM8.55,25.9a1.13,1.13,0,0,1,1.12-1.13h0a1.12,1.12,0,0,1,0,2.24h0A1.13,1.13,0,0,1,8.55,25.9Zm14.87,0A1.12,1.12,0,1,1,24.54,27,1.12,1.12,0,0,1,23.42,25.89Z"/></g></g></svg>