<svg xmlns="http://www.w3.org/2000/svg" viewBox="0 0 29.98 29.98"><defs><style>.cls-1{fill:#fff;}</style></defs><g id="Calque_2" data-name="Calque 2"><g id="Calque_1-2" data-name="Calque 1"><path class="cls-1" d="M26,0H4A4,4,0,0,0,0,4H0v21.9a4,4,0,0,0,4,4h10.8l0-10.71H12.08a.67.67,0,0,1-.66-.66V15.16a.66.66,0,0,1,.65-.66h2.79V11.16c0-3.87,2.36-6,5.82-6H23.5a.67.67,0,0,1,.66.66V8.75a.67.67,0,0,1-.66.66H21.76c-1.88,0-2.24.89-2.24,2.2V14.5h4.13a.65.65,0,0,1,.65.66v.07l-.41,3.46a.66.66,0,0,1-.65.58h-3.7l0,10.71H26a4,4,0,0,0,4-4V4A4,4,0,0,0,26,0Z"/></g></g></svg>