<svg xmlns="http://www.w3.org/2000/svg" viewBox="0 0 353.86 298.21"><defs><style>.cls-1{opacity:0.65;}.cls-2{fill:#8e1832;}.cls-3{opacity:0.65;}.cls-4{fill:#fff;}</style></defs><g id="Calque_2" data-name="Calque 2"><g id="Calque_1-2" data-name="Calque 1"><g class="cls-1"><polyline class="cls-2" points="164.83 298.04 165.07 296.98 164.83 295.05 164.33 291 163.82 286.83 165.79 284.47 167.47 282.15 171.38 279.55 174.92 275 177.01 274.75 178.99 272.39 182.64 267.7 184.33 265.54 188.22 262.79 187.99 260.85 190.07 260.6 189.82 258.63 191.64 256.17 193.72 255.91 197.61 255.43 201.93 254.9 205.95 254.4 208.18 254.13 210.12 253.89 212.2 253.63 215.99 251.05 218.22 250.77 219.91 248.57 224.08 248.05 226.16 247.8 227.99 245.46 230.08 245.2 231.9 242.86 233.73 240.52 233.49 238.59 235.19 236.26 234.94 234.18 234.42 229.98 234.03 229.57 232.32 231.39 230.67 230.6 228.58 230.86 226.83 231.5 224.42 231.37 222.11 229.82 217.94 230.33 216.44 230.52 215.82 231.31 214.41 231.49 212.43 231.3 209.97 230.76 208.57 227.54 208.71 227.24 207.16 227.44 205.04 227.7 202.86 225.85 202.91 222.73 201.74 220.36 199.05 218.97 194.5 220.94 189.6 221.26 189.34 219.18 187.38 219.43 182.95 217.85 180.87 218.11 178.41 216.25 178.24 216.2 178.22 216.11 176.06 214.47 174.02 212.77 171.78 213.04 169.85 213.28 167.1 209.39 165.17 209.63 164.85 209.39 164.82 209.39 162.5 207.69 160.78 206.24 160.45 205.98 158.52 206.22 156.29 206.5 156.03 204.41 155.79 202.45 153.59 200.61 151.12 198.95 151.36 198.64 150.96 198.69 148.47 196.85 144.57 197.33 140.15 195.76 137.69 193.95 135.73 194.19 133.52 194.47 129.47 194.97 127.13 193.14 124.55 189.38 120.5 189.88 118.16 188.06 116.23 188.29 112.07 188.81 109.83 189.08 107.66 187.37 105.42 187.64 103.49 187.88 101.26 185.91 98.79 184.1 96.83 184.35 92.42 182.9 90.21 183.17 85.89 181.47 85.67 179.66 81.51 180.17 79.14 178.19 77.18 178.44 73.17 178.93 70.69 177.28 68.35 175.45 64.59 178.03 61.84 174.14 59.66 172.3 59.4 170.21 59.16 168.25 55.23 170.72 53.15 170.98 50.82 169.28 51.06 171.24 49.1 171.48 47.02 171.74 44.93 172 47.27 173.83 45.45 176.16 43.63 178.5 43.37 176.42 41.03 174.6 38.94 174.86 36.86 175.11 34.64 173.27 33.07 177.69 30.73 175.87 28.9 178.21 27.07 180.55 29.41 182.38 29.65 184.31 31.5 182.12 31.74 184.05 29.93 186.54 34.1 186.03 34.32 187.84 32.51 190.3 32.75 192.26 30.93 194.6 33.01 194.35 33.28 196.55 31.44 198.77 29.11 197.07 27.27 199.28 27.77 203.3 28.05 203.26 28.03 203.15 32.35 202.61 34.01 202.41 33.78 200.6 34.24 200.74 34.18 200.27 38.45 201.86 40.54 201.6 40.77 203.53 41.05 205.77 41.29 207.7 43.25 207.46 45.49 207.18 47.42 206.94 49.91 208.75 51.99 208.49 54.18 210.34 56.06 211.72 55.91 210.43 56.3 210.38 56.27 210.08 58.35 209.82 60.44 209.56 60.68 211.53 62.64 211.28 64.84 211.01 66.93 213.02 65.36 215.18 65.62 217.26 65.87 219.35 67.68 219.12 70.18 220.93 70.42 222.89 70.14 222.92 70.18 223.2 68.21 223.44 68.44 225.25 68.16 225.28 68.2 225.56 66.27 225.8 64.46 226.02 64.68 227.83 64.41 227.87 64.42 227.99 62.34 228.25 60.65 228.45 60.89 230.41 60.49 230.47 60.53 230.74 58.57 230.98 56.98 233.01 57.22 234.94 55.57 237.42 55.79 239.23 53.98 241.69 54.22 243.65 54.48 245.74 54.75 247.94 54.99 249.9 54.56 249.96 54.6 250.23 52.52 250.49 50.86 250.7 51.07 252.35 47.38 257.04 47.65 259.15 45.82 261.49 46.08 263.58 45.8 263.61 45.81 263.73 43.73 263.99 39.78 262.72 40.22 266.26 40.47 268.35 40.73 270.43 43.07 272.26 43.33 274.34 43.59 276.42 41.76 278.76 39.9 280.83 40.17 283.07 39.74 283.12 39.78 283.39 37.7 283.65 37.7 283.65 36.25 285.51 36.52 287.75 34.69 289.93 34.68 289.94 37.02 291.76 38.95 291.52 39.21 293.61 39.45 295.57 39.17 295.61 39.21 295.88 37.29 296.12 35.83 298.04 35.83 298.04 35.83 298.04 34.83 298.04 34.83 298.04"/></g><g class="cls-1"><polyline class="cls-2" points="33.83 298.04 35.83 298.04 35.83 298.04 37.29 296.12 37.52 295.81 39.18 295.61 39.45 295.57 39.21 293.61 38.95 291.52 37.02 291.76 34.68 289.94 34.68 289.94 34.69 289.93 36.52 287.75 36.25 285.51 37.7 283.65 37.94 283.35 39.74 283.12 40.17 283.07 39.9 280.83 41.76 278.76 43.59 276.42 43.33 274.34 43.07 272.26 40.73 270.43 40.47 268.35 40.22 266.26 39.78 262.72 39.72 262.24 44.15 263.81 45.8 263.61 46.08 263.58 45.82 261.49 47.65 259.15 47.38 257.04 51.07 252.35 50.86 250.7 50.83 250.42 52.76 250.18 54.56 249.96 54.99 249.9 54.75 247.94 54.48 245.74 54.22 243.65 53.98 241.69 55.79 239.23 55.57 237.42 57.22 234.94 56.98 233.02 58.57 230.98 58.81 230.67 60.49 230.47 60.89 230.42 60.65 228.45 60.64 228.33 62.72 228.07 64.41 227.87 64.68 227.83 64.46 226.02 64.43 225.75 66.63 225.47 68.16 225.28 68.44 225.25 68.21 223.44 68.18 223.17 70.14 222.92 70.42 222.89 70.18 220.93 67.68 219.12 65.87 219.35 65.62 217.26 65.36 215.18 66.93 213.02 64.84 211.01 62.64 211.28 60.68 211.53 60.44 209.56 58.35 209.82 56.27 210.08 56.3 210.38 56.51 212.04 56.06 211.72 54.18 210.34 51.99 208.49 49.91 208.75 47.42 206.94 45.49 207.18 43.25 207.46 41.29 207.7 41.05 205.77 40.77 203.53 40.54 201.6 38.45 201.86 34.18 200.27 34.24 200.74 34.44 202.35 34.01 202.41 32.35 202.61 28.03 203.15 28.05 203.26 28.27 205.08 28.55 207.31 28.78 209.24 27.11 211.56 27.37 213.65 27.89 217.85 26.04 220.03 24.34 222.36 24.85 226.53 22.89 228.76 21.18 231.09 21.7 235.26 19.87 237.6 18.3 242.02 16.44 244.09 14.63 246.55 14.87 248.51 13.2 250.84 11.48 255.28 9.55 255.52 5.35 256.04 3.51 258.23 3.76 260.31 4.02 262.39 4.28 264.51 2.61 266.83 0.78 269.17 1.02 271.1 1.28 273.19 5.29 272.69 7.63 274.52 9.59 274.27 10.11 278.44 10.37 280.53 8.66 282.85 6.8 284.92 7.08 287.16 5.38 289.32 7.6 291.32 6.16 295.58 6.42 297.66 4.33 297.92"/></g><g class="cls-1"><polygon class="cls-2" points="229.9 291.64 227.56 289.82 227.3 287.73 224.96 285.9 223.13 288.25 223.39 290.33 219.22 290.85 217.26 291.09 215.18 291.35 215.44 293.43 219.48 292.93 221.69 292.65 224.16 296.58 226.25 296.32 226.83 298.04 228.57 298.03 230.41 295.81 230.16 293.72 232.24 293.47 234.07 291.12 231.99 291.38 229.9 291.64"/></g><g class="cls-1"><polygon class="cls-2" points="250.1 284.91 247.99 285.18 245.91 285.43 243.56 283.61 241.48 283.86 241.74 285.95 244.08 287.77 246.16 287.52 248.5 289.34 250.62 289.08 250.36 287 250.1 284.91"/></g><g class="cls-1"><polygon class="cls-2" points="308.79 206.14 310.47 203.66 310.23 201.73 312.06 199.38 310.16 197.91 306.43 198.37 304.19 198.64 303.95 198.27 303.59 198.31 300.99 194.4 300.75 192.44 300.23 188.28 299.98 186.19 301.82 184 301.54 181.77 301.3 179.81 299.44 178.35 297.48 178.6 296.96 178.23 296.88 178.24 295.62 177.26 295.16 176.92 295.15 176.89 294.53 176.41 294.3 174.48 296.38 174.22 298.46 173.96 300.55 173.71 302.36 171.21 304.2 169.03 305.91 166.7 303.69 164.86 303.44 162.9 301.09 160.94 300.84 158.99 302.93 158.73 302.67 156.65 303.22 156.58 303.06 155.21 302.75 154.95 300.57 153.23 300.31 151.15 302.25 150.91 300.05 149.07 299.81 147.13 300.09 147.1 300.85 147 301.75 146.89 301.8 146.89 302.02 146.86 303.83 146.64 303.55 144.4 300.98 140.64 300.08 140.75 299.32 140.85 299.58 142.93 299.3 142.97 297.44 143.2 297.34 143.21 295.92 147.61 291.84 150.08 291.81 150.04 291.72 150.1 289.12 146.18 290.71 141.91 294.38 137.35 294.12 135.27 295.79 132.95 299.96 132.43 303.87 129.83 305.33 125.54 305.07 123.46 307.02 121.11 307.11 121.17 307.18 121.09 309.52 122.91 311.77 124.55 313.15 120.35 313.37 120.51 313.43 120.31 315.46 121.9 315.24 120.09 315.55 120.35 315.28 118.2 315.03 116.16 315 115.89 316.7 113.56 316.46 111.63 315.96 107.59 315.69 105.38 317.64 103.02 317.4 101.06 318.86 96.8 320.79 94.3 324.28 89.86 322.14 88.06 322.14 88.06 320.21 88.3 317.97 88.58 315.8 86.88 311.48 87.42 307.21 85.83 304.87 84.01 304.84 83.97 304.69 83.87 302.1 79.96 300.15 77.03 299.83 76.57 299.69 76.59 297.77 76.26 295.45 76.55 294.25 75.67 291.67 75.23 291.25 75.51 289.16 75.77 287.34 78.11 287.08 76.03 284.75 74.32 282.4 72.38 280.44 72.62 280.38 72.19 280.26 72.21 280.06 70.55 277.85 68.83 277.82 68.55 277.68 68.45 277.46 66.65 275.27 65.07 275 62.84 272.92 63.09 273.19 65.33 271.11 65.59 269.02 65.85 266.66 63.87 266.78 63.72 266.49 63.48 268.31 61.14 268.07 59.18 267.61 55.44 265.65 55.68 263.72 55.92 261.63 56.18 259.02 52.4 259 52.23 258.85 52.01 258.64 50.33 256.68 50.57 254.6 50.83 254.55 50.43 254.43 50.44 254.17 48.33 253.96 46.67 252 46.92 250.07 47.16 250.01 46.73 249.86 46.74 249.66 45.08 247.47 43.25 247.44 42.97 247.26 42.84 247.02 40.9 246.77 38.82 246.51 36.74 242.34 37.25 240.26 37.51 238.17 37.77 236.09 38.02 234.16 38.26 232.33 40.61 232.59 42.69 232.83 44.62 231.12 46.94 231.38 49.03 231.9 53.23 232.16 55.31 229.95 55.58 227.87 55.84 226.02 58.03 223.91 58.29 220.15 60.87 216.22 63.35 212.06 63.86 208.01 64.36 208.29 66.57 210.37 66.31 214.66 67.77 217 69.6 214.92 69.85 215.19 72.06 210.87 70.35 206.7 70.87 202.53 71.38 202.28 69.3 198.11 69.81 193.85 68.35 189.41 66.66 189.69 68.87 185.21 67.18 187.09 64.95 184.71 63.13 184.47 61.2 186.33 58.85 184.22 59.12 182.29 59.35 179.94 57.5 177.86 57.76 178.12 59.87 176.14 62.23 176.63 66.25 176.88 68.21 179.63 72.1 177.65 74.46 177.92 76.67 178.15 78.47 180.66 80.44 180.9 82.36 176.73 82.88 174.26 81.23 172.33 81.47 170.37 81.71 172.05 79.23 168 79.72 163.83 80.24 161.53 78.69 161.75 80.5 157.74 80.99 157.51 79.19 156.99 74.89 154.75 75.17 152.81 75.41 152.57 73.45 148.13 71.76 146.32 74.22 146.56 76.18 142.52 76.68 142.28 74.72 138.11 75.24 135.87 75.52 133.67 73.55 131.71 76.03 129.9 76.25 127.81 76.51 125.73 76.77 125.97 78.73 128.06 78.47 130.14 78.21 131.95 77.99 132.21 80.07 132.48 82.28 130.67 82.5 130.89 84.31 128.81 84.57 126.72 84.83 124.92 87.32 127 87.06 129.32 88.74 131.92 92.65 131.66 90.56 135.97 92.15 135.71 90.06 137.64 89.83 137.9 91.91 142.57 95.44 144.8 95.16 145.06 97.25 146.99 97.01 147.25 99.09 147.5 101.17 151.71 100.66 155.87 100.14 153.89 102.5 156.13 102.22 158.3 103.92 156.88 108.35 158.81 108.11 161.31 109.92 161.57 112.01 163.38 111.78 163.62 113.71 160.08 118.38 160.34 120.47 163.08 124.23 164.89 124.01 165.4 128.18 167.87 129.99 168.11 131.92 172.53 133.49 174.36 131.15 174.61 133.23 174.87 135.31 173.04 137.66 175.13 137.4 173.3 139.74 173.82 143.91 174.06 145.87 172.23 148.21 172.49 150.3 174.57 150.04 174.83 152.12 175.07 154.08 177.41 155.91 177.67 157.99 178.19 162.16 178.43 164.09 176.1 162.42 175.83 160.18 175.59 158.25 173.25 156.42 172.99 154.34 170.66 152.63 170.41 150.55 168.46 152.91 169.22 159.04 169.45 160.97 167.92 163.43 168.42 167.44 166.18 167.72 170.48 169.3 168.92 171.49 164.75 172 165.02 174.21 165.26 176.17 163.29 178.53 163.54 180.62 161.61 180.85 162.11 184.87 160.02 185.13 158.16 187.47 158.42 189.56 154.78 194.27 151.36 198.64 151.12 198.95 153.59 200.61 155.79 202.45 156.03 204.41 156.29 206.5 158.52 206.22 160.45 205.98 160.78 206.24 164.85 209.39 165.17 209.63 167.1 209.39 169.85 213.28 171.78 213.04 174.02 212.77 176.06 214.47 178.22 216.11 178.41 216.25 180.87 218.11 182.95 217.85 187.38 219.43 189.34 219.18 189.6 221.26 194.5 220.94 199.05 218.97 201.74 220.36 202.91 222.73 202.86 225.85 205.04 227.7 207.16 227.44 208.71 227.25 209.45 225.59 210.92 224.85 213.36 223.99 214.89 223.8 217.15 226.2 217.41 229.28 216.44 230.52 217.94 230.33 222.11 229.82 224.42 231.37 226.83 231.5 228.58 230.86 230.67 230.6 232.32 231.39 234.03 229.57 234.44 229.14 233.41 228.58 232.68 227.51 232.15 226.46 233.98 224.12 231.63 222.29 233.2 217.87 232.96 215.91 234.78 213.57 236.87 213.31 238.7 210.97 240.78 210.71 242.71 210.47 244.82 210.21 246.65 207.87 248.48 205.53 250.68 205.25 252.9 207.1 255.24 208.92 257.17 208.69 261.34 208.17 261.86 212.34 263.68 210 265.77 209.74 267.59 207.4 269.68 207.14 269.94 209.23 270.19 211.31 272.15 211.06 274.24 210.81 274.48 212.77 274.74 214.85 276.56 212.51 278.9 214.34 281.25 216.16 281.5 218.25 283.84 220.07 285.81 219.83 287.89 219.57 290.1 219.3 292.06 219.06 294.26 218.79 295.97 216.46 295.71 214.38 295.45 212.29 297.54 212.04 299.47 211.8 301.55 211.54 301.29 209.46 303.53 209.18 305.46 208.94 305.72 211.03 309 206.95 306.92 208.2 308.79 206.14"/></g><g class="cls-3"><polygon class="cls-2" points="344.87 238.79 344.35 234.63 344.11 232.66 343.83 230.43 342.77 228.6 341.67 227.74 341.29 228.22 339.43 228.02 337.46 229.26 335.26 229.53 334.33 230.08 333.52 231.58 331.42 232.68 329.89 235.14 328.65 236.69 329.3 238.45 329.15 240.74 329.85 242.89 330.9 244.6 331.15 246.68 331.4 247.37 330.14 248.8 331.67 250.85 333.43 252.47 333.68 254.55 335.18 256.36 336.6 256.46 338.82 258.3 338.56 256.22 340.5 253.87 340.26 251.9 341.71 247.49 341.45 245.41 341.19 243.32 343.04 241.14 344.87 238.79"/></g><g class="cls-3"><polyline class="cls-2" points="343.83 298.04 343.38 295.26 345.09 290.97 344.83 288.89 344.57 286.81 344.32 284.72 344.06 282.64 343.82 280.68 345.78 280.44 347.61 278.09 347.37 276.16 345.28 276.42 346.85 272 346.58 269.76 344.49 270.01 344.25 268.06 342.05 266.37 344.01 266.12 341.77 264.13 339.33 262.47 339.07 260.39 337.37 262.72 335.16 262.99 335.4 264.92 333.44 265.16 331.36 265.42 329.7 267.89 327.46 268.17 323.3 268.68 321.45 270.87 319.25 269.18 319.49 271.12 317.65 273.33 317.93 275.57 318.16 277.5 320.76 281.41 321.02 283.49 321.52 287.54 323.48 287.3 327.65 286.78 325.82 289.12 324 291.46 324.25 293.55 324.51 295.63 322.79 297.81 320.7 298.06"/></g><g class="cls-1"><polygon class="cls-2" points="191.04 36.53 186.87 37.04 189.21 38.87 191.3 38.61 193.38 38.35 193.13 36.27 191.04 36.53"/></g><g class="cls-1"><polyline class="cls-2" points="175.12 0.1 173.28 2.32 173.54 4.41 173.76 6.21 175.14 6.04 175.19 6.47 175.9 6.38 176.41 10.55 174.33 10.81 174.51 12.31 177.98 11.88 179.91 11.64 178.24 13.97 176.41 16.34 174.33 16.59 172.25 16.85 170.4 19.04 170.66 21.13 168.57 21.38 164.53 21.88 162.44 22.14 160.36 22.4 158.02 20.57 155.93 20.83 155.69 18.9 153.61 19.15 151.68 19.39 149.6 19.65 151.92 21.32 150.09 23.66 147.72 21.84 145.64 22.1 145.89 24.18 144.31 28.49 140.14 29 134.32 31.96 134.56 33.92 132.48 34.18 128.56 36.78 129.08 40.95 131.16 40.69 133.25 40.43 132.99 38.35 135.07 38.09 135.33 40.17 137.16 37.83 140.92 35.25 145.34 36.82 149.51 36.31 149.76 38.39 152.14 40.21 156.15 39.72 157.98 37.38 157.72 35.29 157.46 33.21 159.29 30.87 161.63 32.69 163.72 32.44 165.8 32.18 167.76 31.94 169.84 31.68 172.19 33.51 174.53 35.33 174.79 37.41 176.87 37.16 178.69 34.81 182.71 34.32 185.05 36.15 189.22 35.63 188.96 33.55 190.82 31.2 193.16 33.03 195.35 34.87 197.43 34.62 199.51 34.36 199.75 36.29 203.92 35.77 206.01 35.52 208.09 35.26 210.05 35.02 212.39 36.84 214.48 36.59 216.82 38.41 220.73 35.81 222.81 35.56 225 37.4 226.82 35.06 228.65 32.72 230.89 32.44 232.61 30.27 234.44 27.93 232.1 26.11 230.13 26.35 228.16 28.7 225.81 26.88 223.73 27.14 221.54 25.29 219.2 23.47 218.96 21.5 221.04 21.25 222.97 21.01 225.3 22.71 227.14 20.49 226.87 18.29 224.78 18.55 226.65 16.48 228.88 16.2 230.84 15.96 232.93 15.7 232.65 13.46 234.74 13.21 236.67 12.97 238.49 10.63 240.34 8.44 240.07 6.33 241.81 0.11"/></g><g class="cls-1"><polyline class="cls-2" points="141.83 0.04 141.77 2.1 139.94 4.45 144.11 3.93 146.19 3.67 146.44 5.64 144.35 5.89 144.61 7.98 148.78 7.46 150.6 5.12 152.56 4.88 154.65 4.62 154.91 6.71 155.18 8.94 155.42 10.87 159.59 10.36 161.67 10.1 159.87 12.6 162.19 14.27 164.64 15.96 166.44 15.73 170.61 15.22 172.7 14.96 174.57 12.74 174.51 12.31 174.33 10.81 176.41 10.55 175.9 6.38 175.19 6.47 173.81 6.64 173.76 6.21 173.54 4.41 173.28 2.32 175.12 0.1"/></g><g class="cls-3"><polyline class="cls-2" points="353.83 149.04 351.12 146.86 349.03 147.12 346.95 147.38 344.87 147.64 344.82 147.24 344.54 147.27 344.29 145.28 342.42 143.71 340.33 143.97 340.59 146.05 341.09 150.09 338.85 150.37 337.2 152.82 335.2 155.05 335.46 157.13 333.27 155.29 330.95 153.59 328.71 151.62 328.71 151.59 328.26 151.24 328.02 149.31 327.76 147.23 325.87 145.75 323.79 146.01 321.96 148.35 322.21 150.43 320.49 154.88 318.56 155.12 314.52 155.62 312.04 153.68 304.1 156.91 303.51 156.42 302.22 156.58 301.67 156.65 301.93 158.73 299.84 158.99 300.09 160.94 302.44 162.9 302.69 164.86 304.91 166.7 303.2 169.03 301.36 171.21 299.55 173.71 297.46 173.96 295.38 174.22 293.3 174.48 293.53 176.41 294.15 176.89 294.62 177.26 295.88 178.24 295.96 178.23 297.96 177.98 298.44 178.35 300.3 179.81 300.54 181.77 300.82 184 298.98 186.19 299.23 188.28 299.75 192.44 299.99 194.4 302.59 198.31 302.95 198.27 304.67 198.06 308.72 197.56 309.16 197.91 311.06 199.38 309.23 201.73 309.47 203.66 307.79 206.14 305.92 208.2 308 206.95 308.03 206.93 309.75 205.89 311.56 203.4 313.64 203.14 315.72 202.88 319.65 200.44 321.48 198.1 321.22 196.01 322.89 193.69 324.72 191.35 328.89 190.83 331 190.57 335.69 194.23 337.36 191.9 344.13 195.3 343.87 193.22 345.69 190.87 347.78 190.62 349.86 190.36 348.03 192.7 348.29 194.78 350.63 196.61 348.79 198.8 353.83 202.04"/></g><g class="cls-3"><polyline class="cls-2" points="353.83 136.04 352.55 134.27 350.93 132.93 348.95 133.57 347.42 133.76 345.93 132.1 345.76 130.72 345.51 128.64 347.33 126.3 347.11 124.49 344.88 123.7 342.82 123.03 342.61 121.25 340.95 121.46 338.99 121.7 338.95 121.39 338.55 121.44 338.31 119.51 334.42 119.99 332.34 120.25 330.25 120.5 328.29 120.75 326.21 121 324.28 121.24 322.04 121.52 317.63 120.07 317.87 122.03 317.39 121.68 317.42 121.94 315.55 120.35 315.58 120.64 315.55 120.35 315.24 120.09 315.46 121.9 315.49 122.17 313.37 120.51 313.15 120.35 311.77 124.55 311.7 124.76 309.24 122.95 307.11 121.17 307.02 121.1 305.07 123.46 305.33 125.54 303.87 129.83 299.96 132.43 295.79 132.95 294.12 135.27 294.38 137.35 290.71 141.91 289.12 146.18 291.72 150.09 291.81 150.04 295.65 147.65 297.06 143.24 297.44 143.2 299.3 142.97 299.04 140.88 299.32 140.85 300.08 140.75 300.98 140.64 303.55 144.4 303.83 146.64 301.8 146.89 301.75 146.89 300.85 147 300.09 147.1 299.81 147.13 300.05 149.07 302.25 150.91 300.31 151.15 300.57 153.23 302.75 154.95 303.06 155.21 304.51 156.42 305.1 156.91 313.04 153.68 315.52 155.62 319.56 155.12 321.49 154.88 323.21 150.43 322.96 148.35 324.79 146.01 326.87 145.75 328.76 147.23 329.21 147.58 329.47 149.66 329.71 151.59 329.71 151.62 331.95 153.59 334.27 155.29 336.46 157.13 336.2 155.05 338.2 152.82 339.85 150.37 342.09 150.09 341.59 146.05 341.33 143.97 343.42 143.71 345.29 145.28 345.61 145.55 345.82 147.24 345.87 147.64 347.95 147.38 350.03 147.12 352.12 146.86 353.83 149.04"/></g><g class="cls-1"><polygon class="cls-2" points="319.87 0.04 318.82 8.64 319.06 10.56 318.81 10.88 318.83 11.03 317.37 13.02 319.57 14.73 319.83 16.82 318.5 23.2 318.44 23.21 318.38 23.5 316.3 23.76 314.22 24.01 312.28 24.25 310.05 24.53 307.87 22.8 301.87 25.54 298.23 28.07 298.45 29.91 298.69 31.84 299.21 36.01 299.47 38.09 299.18 38.29 299.21 38.56 295.54 40.88 295.76 42.66 296.04 44.9 296.28 46.83 296.31 47.1 294.79 51.24 296.8 51 297.04 52.95 297.31 55.16 297.33 55.32 295.25 55.57 295.47 57.38 295.49 57.51 295.5 57.65 295.59 58.31 295.73 59.46 295.99 61.55 296.22 63.45 296.23 63.48 298.56 65.3 300.9 67.13 300.99 67.8 301.18 69.37 301.22 69.7 301.42 71.3 301.65 73.19 301.7 73.53 301.95 75.62 300.01 75.86 300.33 76.32 302.42 79.36 305.03 83.26 305.05 83.3 307.39 85.12 311.66 86.71 315.98 86.17 318.15 87.87 320.39 87.59 322.32 87.35 322.32 87.35 322.32 87.36 324.46 89.15 324.68 89.33 321.16 93.84 319.18 96.2 317.76 100.61 318.01 102.57 316.03 104.93 316.29 107.01 316.78 111.03 317.04 113.11 315.21 115.45 315.46 117.49 315.73 119.64 315.76 119.93 315.73 119.64 315.73 119.62 317.57 120.97 318.05 121.33 317.81 119.36 322.22 120.81 324.46 120.53 326.39 120.3 328.47 120.04 330.44 119.8 332.52 119.54 334.6 119.28 339.72 120.53 343.01 121.33 346.3 123.44 348.2 125.78 351.19 127.91 351.97 132.43 353.83 135.04 353.83 0.04 319.87 0.04"/></g><g class="cls-1"><polygon class="cls-2" points="249.66 45.08 249.83 45.22 250.01 46.73 250.07 47.16 252 46.92 253.96 46.67 254.08 46.66 254.34 48.74 254.55 50.43 254.6 50.83 256.68 50.57 258.64 50.33 258.76 50.31 259 52.23 259.02 52.4 261.63 56.18 263.72 55.92 265.65 55.68 267.61 55.44 267.73 55.43 268.25 59.59 268.51 61.68 266.78 63.72 266.66 63.87 269.02 65.85 271.11 65.59 273.19 65.33 272.92 63.09 275 62.84 275.27 65.07 277.46 66.65 277.6 66.75 277.82 68.55 277.85 68.83 280.06 70.55 280.19 70.66 280.38 72.19 280.44 72.62 282.4 72.38 284.75 74.32 287.08 76.03 287.34 78.11 289.16 75.77 291.25 75.51 291.67 75.23 291.49 75.2 291.89 71.61 290.49 69.39 290.24 67.3 289.98 65.22 291.82 63.03 293.48 60.55 293.64 60.69 293.75 60.52 295.56 60.3 295.4 59.02 295.32 58.36 295.31 58.22 295.07 56.28 297.15 56.02 297.13 55.87 296.89 53.94 296.63 51.85 294.55 52.11 294.61 51.95 296.13 47.81 296.1 47.54 295.87 45.73 295.62 43.64 295.36 41.58 295.1 41.75 294.86 39.78 290.33 36.11 287.99 34.29 285.77 32.45 283.69 32.7 282 34.87 281.99 34.87 281.86 35.04 279.65 35.31 279.4 33.23 273.03 32.03 272.91 31.92 271.2 32.13 269.36 34.32 269.62 36.4 265.45 36.92 263.36 37.17 261.43 37.41 261.18 35.33 258.85 33.66 256.74 33.92 256.46 31.68 254.38 31.94 252.57 34.43 250.21 32.45 250.49 34.69 246.71 37.12 246.97 39.2 247.25 41.44 247.44 42.97 247.47 43.25 249.66 45.08"/></g><g class="cls-1"><polygon class="cls-2" points="301.77 76.33 301.51 74.24 301.47 73.9 301.27 72.28 301.04 70.41 301 70.08 300.81 68.51 300.76 68.12 298.41 66.29 296.08 64.46 296.04 64.19 296.04 64.16 295.84 62.53 293.64 60.69 293.48 60.55 291.82 63.03 289.98 65.22 290.23 67.3 290.49 69.39 291.89 71.61 291.49 75.2 291.67 75.23 294.25 75.67 297.77 76.26 299.69 76.59 299.83 76.57 301.77 76.33"/></g><g class="cls-1"><polyline class="cls-2" points="281.1 0.07 279.93 3.79 280.43 7.83 278.74 10.29 278.98 12.25 276.78 12.52 277.03 14.6 275.33 16.93 271.16 17.44 271.68 21.61 273.76 21.35 274 23.28 270.24 25.86 269.75 21.85 267.51 22.13 267.75 24.06 268 26.14 268.5 30.18 270.74 29.91 272.82 31.77 272.95 31.88 279.32 33.08 279.57 35.16 281.78 34.89 281.9 34.72 283.49 32.57 283.61 32.55 285.69 32.29 287.91 34.13 290.25 35.96 294.78 39.63 295.02 41.59 295.28 41.43 298.95 39.12 298.92 38.84 298.68 36.91 298.18 32.86 297.92 30.78 297.68 28.82 297.96 28.62 301.6 26.09 307.61 23.36 309.78 25.08 312.02 24.81 313.95 24.57 316.03 24.31 318.12 24.05 318.17 23.77 319.32 17.68 319.08 15.75 316.86 13.91 317.11 13.58 318.57 11.59 318.55 11.43 318.31 9.5 317.81 5.46 327.15 0.04 320.83 0.01"/></g><g class="cls-1"><polyline class="cls-2" points="292.1 0.33 292.36 2.42 292.62 4.5 293.13 8.67 289.62 13.21 287.53 13.47 285.45 13.72 284.95 9.68 286.76 7.21 284.68 7.47 286.52 5.25 288.35 2.91 288.2 0.21"/></g><path class="cls-4" d="M228.26,289.42l-.25-2.09-3.18-2.48L222.35,288l.21,1.65-8.21,1,.44,3.57,6.52-.8,2.47,3.92,1.82-.22.23.88h3l2.37-2-.21-1.66,1.65-.21,3.13-4-5.65.7Zm3.58,3.34-2.52.31.31,2.51-1.44,1.74-1.05.13-.24-2-2.35.29-2.48-3.93-6,.74L216,292l8.21-1-.31-2.52,1.17-1.5,1.5,1.17.26,2.09,2.83,2.2,2.68-.33Z"/><path class="cls-4" d="M246.12,284.65l-2.34-1.83-3.14.39.39,3.14,2.83,2.21,2.09-.26,2.34,1.82,3.16-.39-.7-5.65Zm2.6,3.91-2.34-1.82-2.09.25-1.85-1.44-.13-1,1-.13,2.34,1.82,3.76-.46.33,2.68Z"/><path class="cls-4" d="M346.4,275.53l1.22-3.45-.39-3.16-2.09.26-.18-1.53-1-.76,1.79-.23-3.56-3.15L340,262l-.44-3.62h0l-.25-2,2-2.36L341,252l1.44-4.41-.49-4,1.65-2,2-2.59-1.09-8.82-1.22-2.09-1.8-1.41-.58.74-1.71-.19-2,1.29-2.2.27-1.24.74L333,231l-2.08,1.09-1.59,2.56-1.5,1.89.74,2-.15,2.27.75,2.29,1,1.73.24,1.92.13.43-1.36,1.56,1.89,2.54,1.65,1.53.25,2,1.84,2.22,1.49.11,2.6,2.16L337,262l-2.64.33.24,1.93-3.64.45-1.65,2.47-6.36.79-1.57,1.86-3-2.34.42,3.39-1.85,2.21.58,4.67,2.6,3.91.83,6.7,5.07-.63-2.73,3.5.52,4.16-1.34,1.69-2.56.94,2.76,0,1.24,0,1.46-2.19-.51-4.17,4.57-5.86-7.18.88-.68-5.56-2.6-3.91-.46-3.67,1.85-2.21-.06-.48,1.34,1,2.12-2.52,6.45-.8,1.66-2.47,4.45-.55-.24-1.93,1.78-.22.78-1.06.07.54,2.64,1.79,1,.89-2.14.27,3.4,2.61.3,2.39,2.08-.26.17,1.32-1.92,5.4,2.54-.31.11.88-1.44,1.85L343,280l1.34,10.86-1.71,4.28.22,2.88h2l-.68-2.68,1.71-4.29-1.21-9.74,1.53-.19,2.21-2.83-.37-3Zm-9.51-19.8-1.34-.1-1.15-1.39-.26-2.14-1.91-1.75-1.12-1.51,1.14-1.31-.36-1-.27-2.17-1.09-1.77-.63-1.93.16-2.3-.56-1.51,1-1.29,1.43-2.29,2.12-1.11.82-1.52.62-.37,2.21-.27,1.89-1.19,2,.23.17-.23.4.31.92,1.58,1,7.9-1.61,2.08-2.06,2.43.53,4.33-1.44,4.41.22,1.81-2,2.35.07.53Z"/><path class="cls-4" d="M124.62,38l3.29-.41.52,4.17,5.65-.7L133.83,39l.59-.07.39,3.13,2.87-3.67,3.35-2.3,4.23,1.5,3.6-.44.2,1.64,2.87,2.2,4.62-.57,2.21-2.83-.52-4.17,1.18-1.5,2,1.56,8.21-1,4.19,3.27.31,2.52,3.14-.39,1.82-2.34,3.4-.42,2.34,1.83.58-.07L189,39.65l5.22-.64-.44-3.58L190,35.9l-.26-2.13,1.19-1.52,1.74,1.35,2.43,2.06,3.75-.46.24,1.92,10.73-1.32,2.34,1.83,2.09-.26,2.52,2,4.21-2.8,1.59-.2,2.53,2.14,3.94-5.06,2.23-.27,4.21-5.35-3.18-2.48-2.56.32-1.7,2-2-1.57-2.07.25-2-1.65-2.09-1.63-.12-.91,3-.37,2.66,1.94,2.5-3-.41-3.27-.84.11.34-.37,6.74-.84-.27-2.23,3.58-.44,2-2.57,2.05-2.44-.28-2.29,2-6.34h-2l-1.52,6.23.24,1.94-1.65,2-1.63,2.09-4.45.55.27,2.24-5.81.72-3.39,3.77,3.33-.42.14,1.14-1.19,1.43-2-1.46-5.06.62.37,3,2.57,2,2.44,2.06,2.1-.26,2.67,2.08,2.25-2.68,1.36-.17,1.5,1.17-2.89,3.67-2.24.28-3.36,4.32L223,34.77l-2.58.32-3.61,2.4-2.16-1.69-2.08.26-2.34-1.83-9.87,1.22-.23-1.93-4.59.57-2-1.65-2.93-2.28-2.51,3.17.2,1.65-3.11.38-2.35-1.82-4.63.57-1.82,2.34-1,.13-.21-1.65-5.17-4-8.21,1-2.69-2.1L156.68,33l.51,4.17L155.75,39l-3.4.42L150.47,38l-.31-2.52-4.73.59-4.62-1.64-4.08,2.8-.88,1.07-.12-1-3.57.44.25,2.08-2.68.33-.36-3,3.38-2.25,2.64-.32-.27-2.19,5.25-2.66,4.49-.55,1.8-4.91-.19-1.52,1-.13,2.72,2.09L153,21.17l-1.4-1,3.45-.43.24,1.93,2.52-.31,2.34,1.83,11.35-1.4-.31-2.51,1.45-1.71,4.18-.52,2-2.63,2.68-3.72-6.35.78h0l2.08-.26-.7-5.65h0l-.71.08v0l-.05-.4h0l-1.38.17-.35-2.82L176.83,0h-2L172.5,2.09l.42,3.47h0l.12,1,.07.54h0l0,.43,2.09-.26.33,2.68-2.09.26.29,2.35-1.47,1.74-7.48.93-2.21-1.52-1.71-1.23,2.38-3.29-7.22.9-.77-6.25-5.1.63-1.82,2.34-3.12.38-.07-.59,2.08-.26-.42-3.45-5.21.64.92-1.17L141.83,0h-1L141,1.9l-2.75,3.51,7.31-.9.06.47-2.08.26L144,8.82l5.22-.65L151,5.83l3-.37.77,6.25,5.28-.65-1.23,1.71,2.94,2.12,2.69,1.85,8.63-1.07,2.27-2.7h0l3-.36-2.29,3-4.15.51-2.25,2.67.21,1.66-9.24,1.14-2.35-1.82-1.65.2-.23-1.93-8.74,1.08,3.24,2.34L150,22.62l-2-1.56-3.13.39.33,2.65-1.36,3.7-3.72.46-6.54,3.27.21,1.74-1.51.19-3.91,2.6-3.87.47Zm67.93-.32-3.12.39-.67-.53,3.71-.45Z"/><path class="cls-4" d="M352.71,196.5,350,194.38l-.18-1.46,2.75-3.53-6.28.78-2.2,2.83.12,1L338.13,191l-1.6,2.21-4.31-3.37-6.9.85-2,2.61-1.85,2.56.26,2.07-1.56,2-3.67,2.29-4.33.54-1.74,2.39.83-1.21,0,0h0l-.23-1.91,2.09-2.68-1.06-.83h0l-1-.81-.64-.5h0l-.45-.34-6,.73-2.24-3.37-.95-7.72,1.84-2.18-.59-4.83-2.35-1.84h0l-.48-.37-2.09.25L295.24,176l-.11-.88,5.83-.72,2-2.71,1.88-2.23.89-1.22,1.23-1.68-2.54-2.1-.24-2-2.36-1.95-.11-.92,2.08-.26-.25-2.08.55-.07h0l.15,0h.07l.68.57,8-3.23,2.38,1.86,6.73-.83,2-5h0v-.12l-.23-1.84,1.45-1.85,1.46-.18,1.41,1.09.49,4,2.95,2.55,2.29,1.68,3.65,3.07L337,155.3l1.83-2.06,1.46-2.17,2.64-.32-.75-6.13,1-.13,1.4,1.18,0,.25.27,2.19h0l.27,0,0,.39,6.69-.82,2,1.52,0-2.13-1.5-1-5.81.72-.2-1.63-2-1.69h0l-.66-.56-3.15.39.75,6.13-1.83.23-1.78,2.65-2.22,2.49.06.52-.77-.64L332.44,153l-2-1.78-.5-4.07-2.12-1.66h0l-.71-.55-2.71.33-1.1,1.42-1.11,1.41.28,2.21L321,154.19l-5.22.65-2.58-2L305.23,156l-.49-.41h0l-2.66-2.2v0l-.76-.61,0,0-.13-1,1.45-.18,1.44-.18h0l-3.28-2.76-.11-.9.4,0,.84-.11h0l1.1-.13,1.68-.21-.39-3.16-2.94-4.29L300,140h0l-.27,0-1.49.19h0l.25,2.09-.22,0-1,.12h0l-.1,0-.65.08-1.48,4.6-3,1.84h0l-.11.07-2-3,1.41-3.8,3.79-4.72-.26-2.1,1.31-1.82,4-.5,4.27-2.84,1.6-4.69h0l-.24-1.93,1.26-1.53,1,.84.67.55,1.76,1.3,1.53,1.12h0l.16-.49,1.27-3.88.22.17h0l2.71,2.12-.18-1.48-.06-.5,2.18,1.84-.06-.43.49.36h0l-.31-2.51.88.29,2.57.84,11.56-1.42.84-.11,3.44.84.09.69.4,0,0,.31,2.24-.28,1.45.35.12,1,3.53,1.2.85,1,0,.25-1.58,2-.26.21v.1h0l0,.31h0l0,.17.44,3.53,1.9,2.12,1.92-.24,1.73-.54,1.23,1,1.2,1.65,0,0h0l.61.56v-2l-.76-1.57-.28-.2-.29-.42-.75-4.37-.08-.69-3.2-1.94-.51-.63-.16-1.28-1.52-.54-2.42-1.58-.18-1.46-.42.06h0l-.82.1-.67.08h0l-1.19.15-1-.25-.24-1.88-.4,0h0l-16.84,2.08L316.74,119h0l.17,1.41-.47-.34h0l-.19-.14-.25-2-.19-1.53,1.83-2.34-1-8.17,2-2.36-.26-2.12,1.32-4.11,1.9-2.26,4-5.08h0l-.22-.19h0l0,0-1.11-.93h0l-1.45-1.22-.08-.06h0l-.26-.23h0l-4.17.51L316,86.1h0l-4.44.55-4-1.48-2.15-1.68-2.58-3.85-1.7-2.48,1.46-.18h0l-1.15-9.26h0l0-.28-4.68-3.65-.05-.42-.2-1.58-.35-2.86h0l-.25-2,2.08-.26h0l-.52-4.21-.2-1.6-1.52.19,1.16-3.16h0L296.17,42l3.66-2.32,0-.29.28-.19h0l-.36-3-.88-7,3.22-2.23,5.53-2.51L309.64,26l9.19-1.13,0-.07,0-.22h.05l1.47-7L320.1,15l-1.87-1.45,1.2-1.65,0-.14.25-.31-.27-2.14.49-4L327.83,0h-2l-5.72,3.42L320.83,0h-2l-.2,3.17-.08-.68L317.83,5l0,6.5-1.12,1.53-.83,1.12,2.54,2.1.19,1.52-1.09,5.72-7.48.92-2.28-1.81h0l-6.43,2.93L299.29,27l-.65.46h0L297,28.62l1.24,10h0l0,.26-2.53,1.59-.06-.54-.07-.55-4.78-3.87-2.32-1.81L286,31.66l-2.57.32-.28,0,0,.05-1.67,2.28-1.14.14-.24-1.88-6.7-1.27-.22-.2h0l-2.08-1.86-1.83.23-.81-6.57.75-.09.55,4.49,5.15-3.53-.39-3.13-2.08.26-.33-2.68,3.74-.46L277.9,15l-.21-1.64,2.21-.27-.3-2.42,1.69-2.45L280.78,4l1.05-4-1.37,0-1.21,3.87.48,3.93L278,10.25l.19,1.5L276,12l.31,2.53L275,16.38l-4.59.56.7,5.66,2.08-.26.09.74-2.36,1.62-.44-3.53-3.73.46,1.18,9.54,2.65-.32.59.53-.35,0-2.24,2.66.2,1.67-6.7.83-.2-1.67-2.83-2-1.66.2-.27-2.23-3.16.38-1.52,2.11-3.2-2.69.45,3.66-2.52,1.62v0l-13.4,1.66-2.21,2.83.5,4-1.71,2.32,1,7.92-3.84.47-1.84,2.19-2,.25-3.89,2.66L216,62.62l-8.79,1.09.45,3.7,2.66-.33,4,1.36.81.63-1,.13.21,1.7L211,69.59l-7.78,1-.26-2.09-4.74.59-4.07-1.4-5.6-2.14.27,2.22-2.32-.88,1.7-2-2.75-2.11-.16-1.31,2.8-3.53-5.55.68-2.35-1.85L177,57.1l.32,2.54-2,2.36.81,6.49,2.52,3.57-1.81,2.17.57,4.64,2.52,2,.1.87-3.14.39-2.48-1.65-2.53.31,1.69-2.48L164,79.46l-3.44-2.31.34,2.7-2.53.31-.75-6.1-4.17.51-.12-.93,1.5-2.21-1.24-.85-1.33,2-4.41-1.69L145.54,74l.19,1.51-2.56.32-.24-2-6.81.84-2.54-2.27-2.27,2.86-6.42.8.43,3.44,6-.74.35,2.81-1.81.22.22,1.81-3.74.46-3,4.16,3.5-.44,2,1.43,2.51,3.79,1.37-.51-.1-.86,4.3,1.58-.31-2.55.44-.06.2,1.65,5.17,3.91,1.79-.22.26,2.08,1.93-.23.51,4.16,7.22-.89-2,2.36,3.82-.47,1.51,1.18-1.6,5,2.79-.35,2,1.45.31,2.5,1.8-.22.11.88-3.53,4.67.32,2.58,3.11,4.28,1.5-.18.47,3.74,2.46,1.81.26,2.07,5.37,1.91,1-1.34.26,2.06-2.75,3.52,2.08-.25-.9,1.16.76,6.12L171.45,148l.39,3.13,2.08-.25.45,3.6,2.34,1.83.76,6.17-.66-.48-.52-4.15L174,156l-.26-2.09-2.32-1.71-.43-3.48-3.27,3.94,1,8.12-1.53,2.46.43,3.53-1.49.18-.17,1.45,3.38,1.25-.8,1.11-4.59.57.57,4.59-2,2.36.21,1.66-1.93.24.49,4-1.64.2-2.25,2.83.26,2.09-6.59,8.48-2.38-1.75-4,.49-4.15-1.46-2.62-1.93-8.2,1-2-1.57-2.78-4-4.19.52-2.34-1.83-8.33,1-2.17-1.72-4.15.52-2-1.79-2.7-2-2.1.26-4.4-1.45-2.19.27-3.73-1.47-.26-2.11-4.58.57-2.36-2-6,.74-2.19-1.46-2.78-2.17L64.78,177l-2.32-3.28-2.1-1.8-.6-4.93L55,170l-1.62.2-3.48-2.55.36,2.94-7.19.89L46.22,174l-2.07,2.65-.08-.59-2.83-2.2-4.16.51L34.29,172l-1.58,4.45-2.11-1.64L26,180.68l2.69,2.1.38,3.11-2.08.26.41,3.3L31,189l-.22-1.81,2.67-.34.1.77-1.81,2.47.24,2-2.75,3.52,3.14-.39.14,1.14-1.19,1.43L29,196.05l-2.5,3,.63,5.09.27,0L28,209l-1.67,2.33.77,6.24-1.66,2-1.88,2.57.51,4.13-1.79,2-1.88,2.57.52,4.15-1.64,2.1-1.63,4.49-1.81,2-2,2.71.24,2-1.5,2.09-1.65,4.19-6,.74L2.72,258l.78,6.32L2,266.37,0,269,.62,274l4.46-.55,2.34,1.83,1.52-.19.64,5.21-1.48,2L6,284.67l.28,2.27-1.94,2.47,2.37,2.14L5.39,295.5,5.58,297l-1.34.16.59.87h2l.09-2.39,1.54-4.55-2.05-1.86,1.45-1.87-.27-2.21,1.68-1.86,1.88-2.57-.9-7.29-2.4.29-2.34-1.82-3.58.44-.37-3,1.65-2.12,1.85-2.56-.77-6.25,1.44-1.72L12,256l1.85-4.77,1.78-2.48-.24-2L17,244.59l2-2.17L20.54,238l1.94-2.5L22,231.29l1.49-2,2.19-2.49-.52-4.21,1.49-2,2.06-2.44-.78-6.32,1.67-2.32-.69-5.64,6.4-.79-.14-1.19h0l-.05-.42,3.28,1.23,1.52-.19.76,6.09,6.57-.81,2.5,1.81,2-.25,2,1.66,1.62,1.19h0l2.1,1.54h0l-.36-2.94,2.68-.33.25,2,4.55-.56,1.36,1.31L64.58,215l.64,5.2,2.26-.28,2,1.45.11.89-.2,0-2,.25.25,2v.06l-.23,0-3.78.46h0v.09l.25,2-.28,0h0l-.85.11-2.92.36h0l.05.38.21,1.7-1.65.21-1.55,2h0l-.67.85h0l.24,2-1.65,2.48L55,239l-1.81,2.47h0l1,7.76-.43.05h0l-3.74.47.22,1.76h0l.07.6-3.68,4.69h0l.26,2.11L45,261.27l.2,1.65-1,.13-5.41-1.92,1.2,9.7,2.35,1.83.43,3.55-1.6,2.05-2.09,2.32.23,1.84-1.8.22-2.08,2.66.28,2.21-1.64,1.95h0l-.47.59,3.18,2.49,1.5-.19.31,2.56-1.5.18-.23.31h0l-.08.11-1.14,1.55h0l-.37.5h-.13l-.31,0-4.15.51,2.13-.09h3l1.88-1.22,2.33-.29,0-.27.28,0h0l-.69-5.53-2.36.29-1.49-1.16L37.31,288h0L37,285.73l1.07-1.37,2.52-.31,0-.28.43,0-.33-2.64,1.67-1.85,2-2.59-.59-4.78L41.44,270l-.77-6.24,3,1,3-.37,0-.13.28,0h0l-.31-2.52,1.83-2.34h0l-.26-2.11,3.68-4.69-.15-1.22.32,0,3.41-.42h0l0-.23v0l.43-.05h0l-1.07-8.66,1.81-2.47-.22-1.83L58,235.13l-.24-1.9L59,231.69l2.39-.3h0l0-.27.4-.05-.24-2,3.77-.47,0-.12.28,0h0l-.22-1.8,3.73-.46,0-.28.27,0-.22-1.8,2-.25,0-.27.28,0-.38-3-3-2.18-1.35.17-.39-3.13,1.78-2.44-2.81-2.72-3.78.47-.24-2-5.66.7h0l0,.3-.4.05,0,.31h0l-2.87-2.38-2.12.26-2.49-1.81-5.68.7-.75-6.09-2.65.32-5.26-2,.07.53-.45-.15.27,2.24-4.76.58-.35-2.83,1.18-1.42,2.33,1.7,2.5-3-.41-3.27-1,.13.91-1.16-.25-2L35.1,188l-.35-2.85-3.2.4,1-1.34L32,180.33l-1.85,2.18-.07-.53-2-1.56,2.74-3.5,2.56,2,1.56-4.4,1.65,1.37,4.18-.52,1.85,1.44.44,3.58,5.23-6.7-1.51-1.18,5.08-.63-.12-1,1.16.85,2.55-.31,3.07-1.94.39,3.17,2.34,2,3.12,4.42,3.91-2.69,2,1.52,2.7,1.81,5.93-.73,2.36,2,3.75-.47.19,1.51,4.91,1.94,2.23-.28,4.4,1.45,1.84-.23,2.17,1.6,2.49,2.19,4.19-.52,2.17,1.72,8.34-1,2.34,1.83,3.9-.49,2.32,3.39,2.75,2.18,8.22-1,2.23,1.64,4.78,1.73,3.77-.47,1.87,1.37-.1.12,3.08,2.06,2,1.65.49,3.94.06.56,4.61-.57h0l1.81,1.52,2.32,1.71.57.41h0l1.79-.22,2.74,3.89h0l4.29-.53,1.82,1.52,1.91,1.45,0,.25.43.13h0l2.54,1.91.11.07,2.21-.27,4.43,1.57,1.39-.17.25,2,5.61-.37L199,219.8l2.16,1.11,1,2-.05,3.29,2.71,2.29,3.18-.39.77,1.78.67,1.54,2.92.63,2.07.2,1.8-.22.62-.8,5.08-.62,2.25,1.51,2.77.15,1.82-.67,1.78-.22,2,.93,1.29-1.37.63,5.13-1.7,2.32.24,1.92-3.27,4.19-2.09.26-1.83,2.34-6.25.77-1.69,2.2-2.1.26-3.79,2.59-20.71,2.56-2.18,3,.19,1.51-2.08.26.28,2.23-3.53,2.49-5.49,7L176.62,274l-2.1.26L170.86,279l-3.81,2.53L165.22,284,163,286.6l1.28,10.34-.21.94,1.47.33.26-1.2-1.23-9.95,1.8-2.15,1.6-2.21,3.79-2.53,3.53-4.46,2.07-.26,2.19-2.6,5.28-6.76,3.64-2.58,1.9-.24-.19-1.49-1.33.17-.06-.45,2.08-.25-.3-2.41,1.45-2,20.42-2.53,3.79-2.58,2.37-.29,1.69-2.21,6.25-.77,1.82-2.34,2.09-.26,4-5.17-.24-1.94,1.7-2.33-.84-6.82-.07-.07.59-.63-1.73-.94-.57-.82-.32-.63,2-2.56-2.51-2L234,218l-.23-1.83,1.44-1.85,2.09-.25,1.83-2.35,6.12-.75,3.66-4.69,1.57-.19,2,1.65,2.59,2,5.66-.7.65,5.22,2.74-3.53,2.09-.25L268,208.1l1-.12.51,4.16,4-.5.63,5.1,2.47-3.18,3.85,3,.26,2.09,2.83,2.21,11.05-1.37,2.07-2.82-.46-3.72,6.1-.76-.26-2.08,2.68-.33.38,3.1,3.05-3.8.05,0,1.25-1.62,1.73-1,1.7-2.36,4-.49,4.07-2.53,2.21-2.77-.26-2.1,1.49-2.06,1.63-2.1,5.67-.7,5,4,1.75-2.44L346,196.6l-.39-3.17,1.44-1.85,2.07-.26-.91,1.16.34,2.71,2,1.53-1.9,2.25,5.17,4.07v-3l-2.92-1.41Zm-324-8.72,0-.33.6-.07,0,.32Zm1.85-3.39-1.06,1.45-.19,0ZM350.31,129l.29,2.34-.07.27h0l-.17.68-1,.31h0l-.61.2-1.08.13-1.06-1.18-.3-2.43-.05-.39,1.76-1.43.07-.07ZM292.45,63.45l.79-1.19.4-.59.16.13h0l1.33,1.12.24,1.91v0l4.68,3.66.46,3.7.21,1.75v0l.15,1.26.06.43-1.24.15-1.37-.23-4.66-.79h0l-1.36-.23,0-.16.33-3-1.44-2.3-.46-3.68,1.07-1.27ZM251.29,35.06l-.1-.81,1.52,1.27,2.08-2.88,1-.12.28,2.23,2.56-.31,1.82,1.31.31,2.5,9.67-1.2-.31-2.5,1.45-1.71,1.07-.13h0l0,0,6,1.14.28,2.28,3.28-.4,0,0L284,33.5l.07-.09,1.45-.18,2,1.65,2.33,1.81,4.29,3.49,0,.09L294.5,43h0l.25-.16.1.8.49,4h0l0,.1-1.31,3.54h0l0,.08-.55,1.5h0l-.06.16h0l2.56-.32.33,2.68-2.08.26.09.74h0l.24,1.93h0l.17,1.33-1,.13-.39-.33h0l-2.07,3.1L289.19,65l.58,4.66,1.34,2.15-.27,2.5-.06.52-2,.25-.9,1.16-.08-.61-2.55-1.86-2.6-2.16-1.54.19,0-.29v-.13h0l-.14-1.1-2.34-1.83-.26-2.1-.14-.1h0l-.24-.17L276,64.66,275.65,62l-3.57.44h0l0,.13.25,2.11-3.1.38-1.53-1.28,1.57-1.87-.9-7.32h-.13l-.86.11-.62.08h0l-4.79.59-2.24-3.26-.33-2.64h-.13l-.46.06-1,.12h0l-2.56.31v-.06l0-.34h0l-.47-3.77-.83.11-2,.24-1.18.15-.18-1.48-.18-.14h0l-.14-.12-1.54-1.3h0l-.5-.42v0l0-.27h0l-.63-5.08ZM214.4,230.73l-1.81-.17-2.09-.45-1.11-2.56.64-1.41,1.14-.58,2.37-.83,1.07-.14,1.82,1.93.2,2.53-.59.76h0l-.62.8Zm91.72-22.63-5.66.7.26,2.09-6.1.75.57,4.62-1.34,1.82-9.79,1.21-1.85-1.44-.26-2.09-5.52-4.3-1.17,1.5-.37-3-4.05.5-.51-4.17-3.14.39L265.37,209l-2.09.25-.9,1.16-.38-3.12-6.54.81-2.08-1.62-2.47-2.05-2.83.35-3.66,4.68-6.12.76-1.83,2.34-2.09.26-2.2,2.83.26,2.09-1.69,4.77,2.17,1.7-1.66,2.12.8,1.57.83,1.21.33.18-1.07,1.14-1.36-.64-2.3.28-1.78.64-2-.12L222.3,229l-4.16.51,0,0-.3-3.63-2.7-2.87-1.91.24-2.69.94-1.7.86-.68,1.5-2.92.36-1.67-1.4,0-2.95-1.36-2.76-3.22-1.65-4.75,2-4.07.27-.27-2.12-2.53.31L183,217.09l-2,.24-4.54-3.43L174.25,212l-4.05.5-2.75-3.89-2.07.26-4.13-3.2h0l-.57-.45-3.73.46-.06-.45-.38-3.15h0L154,200l-1.8-1.21.86-1.09h0l6.15-7.91-.26-2.08,1.47-1.86,2.53-.31-.5-4,1.93-.24-.31-2.51,2-2.36-.47-3.74,3.76-.47,2.33-3.25-2.42-.89-.55-4.45,1.53-2.46-1-8,.64-.77.08.68,2.32,1.7.26,2.07,2.34,1.83.52,4.18,4,2.88-1.26-10.2-2.34-1.83-.55-4.48-2.09.26-.13-1,1.83-2.34-.76-6.13,2.75-3.53-2.08.26.9-1.16-.77-6.27-2.61,3.34-3.48-1.23-.22-1.79-2.46-1.81-.57-4.6-2.11.27-2.37-3.26-.2-1.59,3.54-4.67-.37-3-1.81.22-.2-1.66-3-2.18-1.07.13,1.22-3.81-2.83-2.21-.65.08,2-2.36-9.51,1.18-.52-4.17-1.93.24-.26-2.08-2.67.33L138.6,91.5,138.29,89l-3.42.42.2,1.61-4.3-1.58v.14L130,88.32l-2.75-2-.66.09.6-.84,4.59-.57-.23-1.8,1.81-.23-.71-5.78-6,.74-.05-.47,5.53-.68,1.66-2.1,1.86,1.66,6-.74.25,2,5.53-.69-.3-2.4,1.3-1.77L151.88,74l.28,2.26,4.17-.52.76,6.1,5.5-.68-.12-.92,1.18.79,6.85-.85-1.69,2.48,5.26-.65,2.48,1.66,5.19-.64-.37-3-2.52-2-.42-3.38,2.15-2.56-3-4.2-.68-5.47,2-2.36-.2-1.69,1-.13,2.35,1.86,2.54-.32L183.69,61l.32,2.56,2,1.53-2,2.44,6.62,2.5-.27-2.21,3.3,1.26L198,70.58l3.6-.45.25,2.09,8.89-1.1,5.32,2.1-.34-2.71,3.13-.39-3.76-2.94-4.67-1.63-1.51.18-.09-.72,7.63-.94,4.1-2.58,3.6-2.48,2.23-.27,1.84-2.19L233,56l-1.09-8.81,1.71-2.33-.5-4L234.56,39l11.3-1.4.7,5.67.17.13,0,.23v0L249,45.47l.19,1.59.07.52.15,0,0,.43,1.77-.22,2.13-.26.46,3.77.12,0,.05.4,4.05-.49.14,1.12.1.15.07.22h0l3,4.31,5.68-.7.57,4.64-2.08,2.68.27.22-.12.14h0l3.18,2.67L274,66l-.26-2.1,0-.13.59-.08.23,1.82,1.94,1.4.24.17.23,1.81.12.09h0l0,.26,2.2,1.72.26,2.09h.12l.06.43,2.38-.3,2.14,1.77,2.07,1.51.43,3.56,2.75-3.52,2-.25.32-.21,2.11.36,1.3,1,2.5-.31,1,.18.62.1.56.82,4.1,6.16h0l.08.12.28.18h0l2,1.61.3.23,4.64,1.77,4.19-.52,2.18,1.69,4.14-.51L323.24,90l-3,3.87-1.93,2.51L316.63,101l.23,1.81-1.95,2.36h0l1,8.21-1.71,2.32.36,2.86h0l-.3-.26.21,1.73,0,.18-1.44-1.13-.07.2-.21-.16h0l-1.19,3.63-.2.61-1.4-1L307.05,120h0l0,0,0,0-.07,0-2.63,3.18.28,2.23-1.33,3.89-3.54,2.36-4.32.53-2,2.83.25,2.06-3.47,4.31-1.83,4.84h0l3.21,4.84.07-.05,0,0,5-3,.49-1.53.87-2.68.24,0,.5-.07h0l.82-.1.67-.08h0l.28,0h0l-.26-2.08.46-.06,2.21,3.23L303,146l-4,.5.37,3,1.09.92-1,.12h0l.39,3.13,2.41,1.9.08.07v0l0,.28-.55.07h0l.25,2.09-2.08.25.37,3,2.36,1.95.24,2,1.9,1.59-1.25,1.71-1.88,2.23L300.13,173l-6.67.83.37,3,.62.49v0l.52.38h0l.21.14,1.24,1,.33.18h0l.51.37,2-.24,1.36,1.07.44,3.56L299.19,186l1.08,8.71,3,4.45.36-.05.24.37,6.13-.75,1.06.83-1.56,2,.24,2-1.5,2.2-1,1.07-.86,1h0l.54.65-.66.82Z"/><polygon class="cls-4" points="284.17 9.48 284.8 14.56 290.02 13.91 293.92 8.88 292.83 0.04 291.83 0.04 292.35 8.46 289.22 12.5 286.1 12.89 285.73 9.88 288.4 6.26 286.46 6.5 289.11 3.15 288.83 0.04 287.83 0.04 287.58 2.67 285.94 4.78 282.89 8.45 285.13 8.17 284.17 9.48"/><path class="cls-4" d="M303.65,113a3.5,3.5,0,0,0,1.14.76,3.41,3.41,0,0,0,1.34.27,3.45,3.45,0,0,0,1.34-.27,3.57,3.57,0,0,0,1.13-.76,3.49,3.49,0,0,0,1-2.47,3.41,3.41,0,0,0-.27-1.34,3.5,3.5,0,0,0-.76-1.14,3.57,3.57,0,0,0-1.13-.76,3.63,3.63,0,0,0-1.34-.26,3.59,3.59,0,0,0-1.34.26,3.49,3.49,0,0,0-1.9,1.9,3.4,3.4,0,0,0-.26,1.34,3.43,3.43,0,0,0,1,2.47Z"/><path class="cls-4" d="M294.84,115.49a.62.62,0,0,0-.56-.36l-17.45.07a.63.63,0,0,0-.59.47.6.6,0,0,0,.31.68l7.65,4.09-1.78,8.5a.62.62,0,0,0,.33.68.59.59,0,0,0,.52,0,.65.65,0,0,0,.21-.16l11.27-13.32A.62.62,0,0,0,294.84,115.49Z"/><path class="cls-4" d="M279.72,96.39a.63.63,0,0,0,.44.61l16.75,4.88a.62.62,0,0,0,.63-.19.6.6,0,0,0,.1-.65l-7.16-15.91a.61.61,0,0,0-.66-.35.59.59,0,0,0-.5.55L288.69,94l-8.49,1.83A.61.61,0,0,0,279.72,96.39Z"/><path class="cls-4" d="M271.17,88.3l.13,0,8.89-.59a.32.32,0,0,0,.27-.2.31.31,0,0,0-.07-.33l-6.21-6.38a.3.3,0,0,0-.38,0,.3.3,0,0,0-.15.35l1.22,4.26-3.76,2.36a.32.32,0,0,0-.13.36A.34.34,0,0,0,271.17,88.3Z"/><path class="cls-4" d="M276.42,124.19l-9.22,2.17a.32.32,0,0,0-.25.31.34.34,0,0,0,.24.33l4.55,1.23.09,4.71a.35.35,0,0,0,.26.32.35.35,0,0,0,.28-.06.31.31,0,0,0,.09-.11l4.33-8.42a.33.33,0,0,0-.37-.48Z"/></g></g></svg>