<svg xmlns="http://www.w3.org/2000/svg" viewBox="0 0 33 33"><defs><style>.cls-1{fill:#fff;}</style></defs><g id="Calque_2" data-name="Calque 2"><g id="Calque_1-2" data-name="Calque 1"><path class="cls-1" d="M16.5,30A13.5,13.5,0,1,1,30,16.5,13.52,13.52,0,0,1,16.5,30Zm0-30A16.5,16.5,0,1,0,33,16.5,16.52,16.52,0,0,0,16.5,0Z"/><path class="cls-1" d="M16.5,7a2,2,0,1,0,2,2A2,2,0,0,0,16.5,7Z"/><path class="cls-1" d="M16.5,14A1.5,1.5,0,0,0,15,15.5v9a1.5,1.5,0,0,0,3,0v-9A1.5,1.5,0,0,0,16.5,14Z"/></g></g></svg>