<svg xmlns="http://www.w3.org/2000/svg" viewBox="0 0 30.02 30.01"><defs><style>.cls-1{fill:#fff;}</style></defs><g id="Calque_2" data-name="Calque 2"><g id="Calque_1-2" data-name="Calque 1"><path class="cls-1" d="M15.07,11.32a3.52,3.52,0,0,0-2.74,1.15,4,4,0,0,0,0,5.06,3.52,3.52,0,0,0,2.74,1.15h0a3.54,3.54,0,0,0,2.74-1.14,4,4,0,0,0,0-5.06A3.52,3.52,0,0,0,15.07,11.32Z"/><polygon class="cls-1" points="15.07 26.03 15.07 26.03 15.07 26.03 15.07 26.03"/><path class="cls-1" d="M30,6.53C29.72,3,27.61.65,24.35.19h0A27.88,27.88,0,0,0,19.94.05c-2,0-3.73,0-5.16,0h-.54l-3.3,0C5.57,0,3.74.27,2,2.08,0,4.13.05,6.31.11,11.59c0,1,0,2.14,0,3.4,0,.92,0,1.84,0,2.74a27.51,27.51,0,0,0,.46,7.52A5.74,5.74,0,0,0,5,29.62,85.34,85.34,0,0,0,15.07,30a85.84,85.84,0,0,0,10.14-.36c2.78-.72,4.53-3,4.78-6.17C30,23,30,7,30,6.53ZM25.53,22.22C24.15,25.75,20.87,26,17.34,26h-4.4a15.77,15.77,0,0,1-5-.58,5.26,5.26,0,0,1-3.3-3.24C4,20.68,4,18.36,4,15.9v-2c0-2.67,0-4.61.58-6.15C6,4.23,9.2,4,12.93,4h4.51c2.8,0,5.09.13,6.81,1.86,1.89,1.89,1.88,4.32,1.86,8h0V16.1C26.12,18.75,26.13,20.67,25.53,22.22Z"/><path class="cls-1" d="M17.39,5.92H14.08c-3.82,0-5.7,0-6.79,1.19S6,10.48,6,15c0,8.79.25,9,9,9h2.5c3.56,0,6.29-.34,6.48-4.61.33-7.24.22-10.73-1.26-12.29C21.79,6.11,20.19,5.92,17.39,5.92ZM15.08,20.66a5.67,5.67,0,0,1,0-11.33h0a5.67,5.67,0,0,1,0,11.33ZM21,10.43a1.33,1.33,0,0,1,0-2.65h0A1.32,1.32,0,0,1,22.29,9.1,1.33,1.33,0,0,1,21,10.43Z"/></g></g></svg>