<svg xmlns="http://www.w3.org/2000/svg" viewBox="0 0 34.72 33.27"><defs><style>.cls-1{fill:#fff;}</style></defs><g id="Calque_2" data-name="Calque 2"><g id="Calque_1-2" data-name="Calque 1"><path class="cls-1" d="M34.71,13.31a1.86,1.86,0,0,0-1.67-2l-10-.91-4-9.27a1.81,1.81,0,0,0-1-1,1.84,1.84,0,0,0-2.42,1l-4,9.27-10,.91a1.87,1.87,0,0,0-1.22.63,1.83,1.83,0,0,0,.17,2.6L8.2,21.17,6,31a1.83,1.83,0,0,0,1.8,2.26,1.89,1.89,0,0,0,1-.26l8.64-5.17L26,33a1.84,1.84,0,0,0,2.74-2l-2.23-9.84,7.58-6.64A1.9,1.9,0,0,0,34.71,13.31Zm-9.77,6.36a1.84,1.84,0,0,0-.59,1.8l2.11,9.28L18.3,25.88a1.83,1.83,0,0,0-.94-.27h0a1.78,1.78,0,0,0-.95.27L8.26,30.75l2.1-9.28a1.84,1.84,0,0,0-.58-1.8L2.63,13.39l9.46-.85a1.86,1.86,0,0,0,1.53-1.12l3.74-8.75,3.73,8.75a1.85,1.85,0,0,0,1.54,1.12l9.46.86Z"/></g></g></svg>