<svg xmlns="http://www.w3.org/2000/svg" viewBox="0 0 27.65 27.65"><defs><style>.cls-1{fill:#8d1731;}</style></defs><g id="Calque_2" data-name="Calque 2"><g id="Calque_1-2" data-name="Calque 1"><path class="cls-1" d="M22.41,16.82a4.76,4.76,0,0,0-1.28-.18,4.69,4.69,0,0,0-3.29,1.48h0l-1.46,1.45A22.15,22.15,0,0,1,11.77,16l-.14-.14a21.57,21.57,0,0,1-3.56-4.6L9.52,9.81h0a4.43,4.43,0,0,0,1.3-4.57,10.14,10.14,0,0,0-2.64-4A4.1,4.1,0,0,0,5.37,0H5.22A4.08,4.08,0,0,0,2.48,1.05l0,0-.05,0A8.78,8.78,0,0,0,0,7.54C0,12,2.46,17.05,6.53,21.12a25.52,25.52,0,0,0,2.59,2.25,1,1,0,0,0,.65.23,1.08,1.08,0,0,0,.86-.43,1,1,0,0,0,.21-.8,1,1,0,0,0-.41-.71,26,26,0,0,1-2.38-2.07C4.38,15.92,2.18,11.41,2.16,7.53A6.67,6.67,0,0,1,3.91,2.67h0a1.95,1.95,0,0,1,2.71.1C9.42,5.66,9.22,7,8,8.29l-2,2a1.09,1.09,0,0,0-.22,1.2A21.82,21.82,0,0,0,10.1,17.4l.15.14a21.62,21.62,0,0,0,5.89,4.34,1,1,0,0,0,.44.1,1.07,1.07,0,0,0,.76-.32l2-2a2.51,2.51,0,0,1,1.79-.86c1,0,2.18.7,3.75,2.22a2,2,0,0,1,.1,2.71h0a6.64,6.64,0,0,1-4.81,1.76h-.05a14,14,0,0,1-5.33-1.27,1.1,1.1,0,0,0-1.42.57,1.09,1.09,0,0,0,.57,1.42,16,16,0,0,0,6.17,1.44h.06a8.77,8.77,0,0,0,6.36-2.41l0,0,0,0a4.12,4.12,0,0,0-.21-5.7A10,10,0,0,0,22.41,16.82Z"/></g></g></svg>