<svg xmlns="http://www.w3.org/2000/svg" viewBox="0 0 23.27 23.28"><defs><style>.cls-1{fill:#fff;}</style></defs><g id="Calque_2" data-name="Calque 2"><g id="Calque_1-2" data-name="Calque 1"><g id="Accueil_Ribeauvillé_1" data-name="Accueil Ribeauvillé 1"><g id="Composant_8_16" data-name="Composant 8 16"><path class="cls-1" d="M22.13,15.84a8.7,8.7,0,0,0-3.43-2.27,4.1,4.1,0,0,0-4.17,1.17l-.91.9a17.81,17.81,0,0,1-3.28-2.59l-.11-.12a17.07,17.07,0,0,1-2.6-3.27l.93-.94A4.08,4.08,0,0,0,9.69,4.55,8.64,8.64,0,0,0,7.45,1.17,3.8,3.8,0,0,0,2.16,1l.32.39h0l-.4-.31A7.57,7.57,0,0,0,0,6.58c0,3.7,2,7.92,5.4,11.29a22.46,22.46,0,0,0,2.14,1.86,1.34,1.34,0,0,0,1,.25,1.39,1.39,0,0,0,.9-.55,1.37,1.37,0,0,0-.26-1.88,19.27,19.27,0,0,1-1.86-1.62c-2.87-2.87-4.59-6.37-4.6-9.39A4.88,4.88,0,0,1,4,3a1.05,1.05,0,0,1,1.48,0c2.37,2.46,1.67,3.18,1.1,3.76L5,8.45A1.37,1.37,0,0,0,4.7,10a18,18,0,0,0,3.59,4.88L8.4,15a17.94,17.94,0,0,0,4.9,3.6,1.37,1.37,0,0,0,1.52-.27l1.63-1.61c.58-.57,1.3-1.28,3.76,1.09a1.06,1.06,0,0,1,.08,1.46,5,5,0,0,1-3.57,1.28,10.72,10.72,0,0,1-4.11-1,1.37,1.37,0,0,0-1.81,1.77,1.33,1.33,0,0,0,.72.75,13.38,13.38,0,0,0,5.21,1.2H17a7.62,7.62,0,0,0,5.22-2.09l.07-.08a3.75,3.75,0,0,0,1-2.69A3.8,3.8,0,0,0,22.13,15.84Z"/></g></g></g></g></svg>