<svg xmlns="http://www.w3.org/2000/svg" viewBox="0 0 30.67 30.69"><defs><style>.cls-1{fill:#fff;}</style></defs><g id="Calque_2" data-name="Calque 2"><g id="Calque_1-2" data-name="Calque 1"><path class="cls-1" d="M28.15,19h0a14.16,14.16,0,0,0-3.67-2.3,1.66,1.66,0,0,0-1.34,3A11.48,11.48,0,0,1,26,21.47a4.11,4.11,0,0,1,1.39,3.1v2.14a.65.65,0,0,1-.66.66H4a.66.66,0,0,1-.66-.66V24.57a4.16,4.16,0,0,1,1.39-3.1c1.13-1,4.43-3.3,10.62-3.3h0a9.09,9.09,0,0,0,6.43-15.5A9,9,0,0,0,15.36,0h0A9.09,9.09,0,0,0,9,15.63,16.62,16.62,0,0,0,2.52,19,7.46,7.46,0,0,0,0,24.57v2.15a4,4,0,0,0,4,4H26.7a4,4,0,0,0,4-4V24.57A7.46,7.46,0,0,0,28.15,19ZM9.58,9.1a5.76,5.76,0,1,1,5.76,5.76A5.76,5.76,0,0,1,9.58,9.1Z"/></g></g></svg>